<svg width="14" height="14" viewBox="0 0 14 14" fill="none" xmlns="http://www.w3.org/2000/svg">
<g clip-path="url(#clip0_750_164)">
<path d="M9.53887 8.89362L9.54907 3.00362C9.55019 2.35749 9.29482 1.72685 8.83914 1.25044C8.38347 0.774023 7.76481 0.490859 7.11927 0.463238C6.47373 0.435617 5.85419 0.665801 5.39693 1.10315C4.93967 1.54051 4.68216 2.1492 4.68104 2.79533L4.66654 11.1713C4.66622 11.3846 4.70788 11.5976 4.78914 11.7982C4.8704 11.9987 4.98967 12.1829 5.14013 12.3401C5.2906 12.4974 5.46932 12.6246 5.66608 12.7146C5.86285 12.8046 6.07381 12.8556 6.28692 12.8647C6.50003 12.8738 6.71111 12.8407 6.90812 12.7675C7.10513 12.6942 7.28421 12.5822 7.43513 12.4378C7.58604 12.2933 7.70585 12.1194 7.78769 11.9258C7.86954 11.7322 7.91183 11.5227 7.91215 11.3094L7.92666 2.92731C7.92254 2.71416 7.8346 2.5081 7.68249 2.35288C7.53037 2.19767 7.32587 2.10609 7.11306 2.09789C6.90025 2.08968 6.69617 2.16552 6.5448 2.30904C6.39343 2.45256 6.3069 2.65227 6.30384 2.86515L6.29349 8.84472M7.92626 2.93457L7.92628 2.92691" stroke="#808080" stroke-width="0.8" stroke-linecap="round" stroke-linejoin="round"/>
</g>
<defs>
<clipPath id="clip0_750_164">
<rect width="14" height="14" fill="white"/>
</clipPath>
</defs>
</svg>