<svg width="50" height="35" viewBox="0 0 50 35" fill="none" xmlns="http://www.w3.org/2000/svg">
<rect width="50" height="35" rx="4" fill="#38BAE6"/>
<rect width="24" height="24" transform="translate(13 6)" fill="#38BAE6"/>
<rect x="14" y="9" width="22" height="2" fill="white"/>
<rect x="14" y="15" width="22" height="2" fill="white"/>
<path d="M19.5098 26.875C19.4698 26.875 19.4448 26.8675 19.4348 26.8525C19.4248 26.8425 19.4198 26.8225 19.4198 26.7925V22.72L17.7923 26.7775C17.7823 26.8025 17.7698 26.8175 17.7548 26.8225C17.7448 26.8275 17.7148 26.83 17.6648 26.83H17.0648C17.0148 26.83 16.9823 26.8275 16.9673 26.8225C16.9573 26.8175 16.9473 26.8025 16.9373 26.7775L15.3098 22.72V26.7925C15.3098 26.8225 15.3048 26.8425 15.2948 26.8525C15.2848 26.8675 15.2598 26.875 15.2198 26.875H14.5223C14.4623 26.875 14.4323 26.8475 14.4323 26.7925V21.3775C14.4323 21.3075 14.4398 21.265 14.4548 21.25C14.4698 21.23 14.5173 21.22 14.5973 21.22H15.4898C15.5248 21.22 15.5448 21.2275 15.5498 21.2425C15.5598 21.2525 15.5723 21.275 15.5873 21.31L17.3648 25.72L19.1423 21.31C19.1573 21.275 19.1673 21.2525 19.1723 21.2425C19.1823 21.2275 19.2048 21.22 19.2398 21.22H20.1323C20.2123 21.22 20.2598 21.23 20.2748 21.25C20.2898 21.265 20.2973 21.3075 20.2973 21.3775V26.7925C20.2973 26.8475 20.2673 26.875 20.2073 26.875H19.5098ZM21.9604 26.8825C21.8604 26.8825 21.8004 26.8725 21.7804 26.8525C21.7604 26.8375 21.7504 26.775 21.7504 26.665V21.4225C21.7504 21.3225 21.7579 21.265 21.7729 21.25C21.7929 21.23 21.8504 21.22 21.9454 21.22H24.6079C24.6629 21.22 24.6954 21.23 24.7054 21.25C24.7154 21.265 24.7204 21.295 24.7204 21.34V21.895C24.7204 21.945 24.7129 21.98 24.6979 22C24.6829 22.015 24.6529 22.0225 24.6079 22.0225H22.5754V23.5525H24.5104C24.5854 23.5525 24.6229 23.5925 24.6229 23.6725V24.235C24.6229 24.32 24.5854 24.3625 24.5104 24.3625H22.5754V26.0725H24.6979C24.7679 26.0725 24.8029 26.115 24.8029 26.2V26.7625C24.8029 26.8425 24.7679 26.8825 24.6979 26.8825H21.9604ZM29.3642 26.875C29.3242 26.875 29.2942 26.8675 29.2742 26.8525C29.2542 26.8375 29.2292 26.805 29.1992 26.755L26.8442 22.705V26.755C26.8442 26.805 26.8367 26.8375 26.8217 26.8525C26.8067 26.8675 26.7742 26.875 26.7242 26.875H26.1017C26.0617 26.875 26.0317 26.8675 26.0117 26.8525C25.9917 26.8375 25.9817 26.805 25.9817 26.755V21.3475C25.9817 21.2875 25.9917 21.25 26.0117 21.235C26.0317 21.215 26.0692 21.205 26.1242 21.205H26.8142C26.8542 21.205 26.8842 21.2125 26.9042 21.2275C26.9242 21.2375 26.9492 21.27 26.9792 21.325L29.3342 25.3675V21.325C29.3342 21.275 29.3417 21.2425 29.3567 21.2275C29.3717 21.2125 29.4042 21.205 29.4542 21.205H30.0767C30.1267 21.205 30.1567 21.2125 30.1667 21.2275C30.1817 21.2425 30.1892 21.275 30.1892 21.325V26.7325C30.1892 26.7925 30.1792 26.83 30.1592 26.845C30.1442 26.865 30.1092 26.875 30.0542 26.875H29.3642ZM34.896 26.5675C34.711 26.7125 34.5035 26.82 34.2735 26.89C34.0485 26.965 33.8035 27.0025 33.5385 27.0025C33.0185 27.0025 32.5685 26.8575 32.1885 26.5675C31.9385 26.3775 31.756 26.14 31.641 25.855C31.531 25.565 31.476 25.2325 31.476 24.8575V21.325C31.476 21.3 31.4835 21.275 31.4985 21.25C31.5185 21.225 31.541 21.2125 31.566 21.2125H32.2335C32.2585 21.2125 32.2785 21.2225 32.2935 21.2425C32.3135 21.2625 32.3235 21.285 32.3235 21.31V24.8575C32.3235 25.2475 32.426 25.5675 32.631 25.8175C32.836 26.0675 33.1385 26.1925 33.5385 26.1925C33.9485 26.1925 34.2535 26.07 34.4535 25.825C34.6585 25.58 34.761 25.2575 34.761 24.8575V21.31C34.761 21.285 34.7685 21.2625 34.7835 21.2425C34.8035 21.2225 34.826 21.2125 34.851 21.2125H35.5185C35.5435 21.2125 35.5635 21.225 35.5785 21.25C35.5985 21.275 35.6085 21.3 35.6085 21.325V24.8575C35.6085 25.2275 35.5485 25.5575 35.4285 25.8475C35.3135 26.1375 35.136 26.3775 34.896 26.5675Z" fill="white"/>
</svg>
