<svg width="30" height="38" viewBox="0 0 30 38" fill="none" xmlns="http://www.w3.org/2000/svg">
<path d="M6.99976 4.20024H10.9998C12.27 4.20024 13.2998 5.22999 13.2998 6.50024V12.8002H6.99976C5.7295 12.8002 4.69976 11.7705 4.69976 10.5002V6.50024C4.69976 5.22999 5.7295 4.20024 6.99976 4.20024Z" fill="white" stroke="#495057" stroke-width="1.4"/>
<path d="M6.99976 16.2H13.2998V22.5C13.2998 23.7703 12.27 24.8 10.9998 24.8H6.99976C5.7295 24.8 4.69976 23.7703 4.69976 22.5V18.5C4.69976 17.2297 5.7295 16.2 6.99976 16.2Z" fill="white" stroke="#495057" stroke-width="1.4"/>
<path d="M16.7 16.2H23C24.2703 16.2 25.3 17.2297 25.3 18.5V22.5C25.3 23.7703 24.2703 24.8 23 24.8H19C17.7297 24.8 16.7 23.7703 16.7 22.5V16.2Z" fill="#D0EAFB" stroke="#495057" stroke-width="1.4"/>
<path d="M19 4.20024H23C24.2703 4.20024 25.3 5.22999 25.3 6.50024V10.5002C25.3 11.7705 24.2703 12.8002 23 12.8002H16.7V6.50024C16.7 5.22999 17.7297 4.20024 19 4.20024Z" fill="white" stroke="#495057" stroke-width="1.4"/>
<path d="M2.66011 33.0515C2.63211 33.0655 2.59477 33.0725 2.54811 33.0725C2.50611 33.0725 2.47111 33.0468 2.44311 32.9955L2.23311 32.6525C2.20977 32.6152 2.20277 32.5778 2.21211 32.5405C2.22611 32.4985 2.25411 32.4658 2.29611 32.4425C2.55277 32.3165 2.80011 32.1672 3.03811 31.9945C3.27611 31.8218 3.49077 31.6375 3.68211 31.4415C3.87811 31.2455 4.04611 31.0448 4.18611 30.8395C4.33077 30.6342 4.43811 30.4358 4.50811 30.2445C4.52677 30.1978 4.53377 30.1605 4.52911 30.1325C4.52911 30.0998 4.48944 30.0835 4.41011 30.0835H2.68811C2.65544 30.0835 2.62977 30.0742 2.61111 30.0555C2.59711 30.0322 2.59011 30.0065 2.59011 29.9785V29.5095C2.59011 29.4442 2.62511 29.4115 2.69511 29.4115H4.91411C5.11944 29.4115 5.27111 29.4512 5.36911 29.5305C5.46711 29.6052 5.50444 29.7172 5.48111 29.8665C5.47177 29.9178 5.46011 29.9692 5.44611 30.0205C5.43211 30.0718 5.41811 30.1185 5.40411 30.1605C5.35277 30.3378 5.27811 30.5198 5.18011 30.7065C5.08211 30.8885 4.96777 31.0705 4.83711 31.2525C4.92111 31.3458 5.01677 31.4392 5.12411 31.5325C5.23144 31.6258 5.34111 31.7168 5.45311 31.8055C5.56977 31.8895 5.68411 31.9688 5.79611 32.0435C5.90811 32.1182 6.01077 32.1812 6.10411 32.2325C6.19744 32.2792 6.21611 32.3492 6.16011 32.4425L5.92911 32.7995C5.87777 32.8742 5.80544 32.8882 5.71211 32.8415C5.62811 32.7995 5.52777 32.7412 5.41111 32.6665C5.29911 32.5872 5.18011 32.5008 5.05411 32.4075C4.93277 32.3095 4.81144 32.2068 4.69011 32.0995C4.57344 31.9922 4.46844 31.8895 4.37511 31.7915C4.13711 32.0435 3.87344 32.2768 3.58411 32.4915C3.29477 32.7062 2.98677 32.8928 2.66011 33.0515ZM5.59311 31.3085V30.8255C5.59311 30.8022 5.60244 30.7835 5.62111 30.7695C5.64444 30.7508 5.66777 30.7415 5.69111 30.7415H6.80411V29.0545C6.80411 28.9938 6.83444 28.9635 6.89511 28.9635H7.51811C7.57877 28.9635 7.60911 28.9938 7.60911 29.0545V33.5975C7.60911 33.6582 7.57877 33.6885 7.51811 33.6885H6.89511C6.83444 33.6885 6.80411 33.6582 6.80411 33.5975V31.3995H5.69111C5.66777 31.3995 5.64444 31.3902 5.62111 31.3715C5.60244 31.3528 5.59311 31.3318 5.59311 31.3085ZM7.81211 35.4035C7.81211 35.4315 7.80044 35.4525 7.77711 35.4665C7.75844 35.4805 7.73744 35.4875 7.71411 35.4875H4.06711C3.85711 35.4875 3.71477 35.4502 3.64011 35.3755C3.57011 35.3008 3.53511 35.1725 3.53511 34.9905V33.4645C3.53511 33.4412 3.54444 33.4202 3.56311 33.4015C3.58644 33.3782 3.60977 33.3665 3.63311 33.3665H4.23511C4.26311 33.3665 4.28644 33.3782 4.30511 33.4015C4.32844 33.4202 4.34011 33.4412 4.34011 33.4645V34.7035C4.34011 34.7502 4.34944 34.7805 4.36811 34.7945C4.38677 34.8085 4.42177 34.8155 4.47311 34.8155H7.71411C7.73744 34.8155 7.75844 34.8248 7.77711 34.8435C7.80044 34.8622 7.81211 34.8832 7.81211 34.9065V35.4035ZM9.15211 33.9685C9.12411 33.9872 9.08911 33.9988 9.04711 34.0035C9.00511 34.0082 8.97245 33.9942 8.94911 33.9615L8.69011 33.6325C8.66678 33.6045 8.65745 33.5695 8.66211 33.5275C8.66678 33.4855 8.68778 33.4528 8.72511 33.4295C8.95378 33.2802 9.16611 33.1168 9.36211 32.9395C9.56278 32.7575 9.74245 32.5708 9.90111 32.3795C10.0644 32.1835 10.2068 31.9852 10.3281 31.7845C10.4541 31.5838 10.5544 31.3855 10.6291 31.1895C10.6524 31.1335 10.6664 31.0915 10.6711 31.0635C10.6758 31.0308 10.6361 31.0145 10.5521 31.0145H9.10311C9.07978 31.0145 9.06111 31.0052 9.04711 30.9865C9.03311 30.9632 9.02611 30.9375 9.02611 30.9095V30.4755C9.02611 30.4102 9.05411 30.3775 9.11011 30.3775H11.0071C11.2124 30.3775 11.3594 30.4055 11.4481 30.4615C11.5368 30.5128 11.5811 30.5968 11.5811 30.7135C11.5811 30.7508 11.5718 30.8022 11.5531 30.8675C11.5391 30.9328 11.5274 30.9795 11.5181 31.0075C11.4481 31.2035 11.3664 31.3972 11.2731 31.5885C11.1844 31.7752 11.0818 31.9572 10.9651 32.1345C11.0398 32.2372 11.1238 32.3422 11.2171 32.4495C11.3151 32.5522 11.4154 32.6525 11.5181 32.7505C11.6208 32.8485 11.7188 32.9395 11.8121 33.0235C11.9101 33.1028 11.9964 33.1705 12.0711 33.2265C12.1224 33.2638 12.1481 33.3012 12.1481 33.3385C12.1481 33.3712 12.1341 33.4038 12.1061 33.4365L11.8331 33.7725C11.8098 33.8052 11.7771 33.8215 11.7351 33.8215C11.6931 33.8168 11.6534 33.8028 11.6161 33.7795C11.4481 33.6582 11.2661 33.5042 11.0701 33.3175C10.8788 33.1262 10.7014 32.9278 10.5381 32.7225C10.3421 32.9605 10.1274 33.1845 9.89411 33.3945C9.66545 33.6045 9.41811 33.7958 9.15211 33.9685ZM13.1491 35.2425C13.1491 35.3078 13.1188 35.3405 13.0581 35.3405H12.4911C12.4211 35.3405 12.3861 35.3078 12.3861 35.2425V32.3165H11.6371C11.6138 32.3165 11.5904 32.3072 11.5671 32.2885C11.5484 32.2698 11.5391 32.2488 11.5391 32.2255V31.7425C11.5391 31.7192 11.5484 31.7005 11.5671 31.6865C11.5904 31.6678 11.6138 31.6585 11.6371 31.6585H12.3861V29.1665C12.3861 29.1058 12.4211 29.0755 12.4911 29.0755H13.0581C13.1188 29.0755 13.1491 29.1058 13.1491 29.1665V35.2425ZM14.4861 35.5295C14.4861 35.5902 14.4558 35.6205 14.3951 35.6205H13.7861C13.7254 35.6205 13.6951 35.5902 13.6951 35.5295V29.0545C13.6951 28.9938 13.7278 28.9635 13.7931 28.9635H14.3951C14.4558 28.9635 14.4861 28.9938 14.4861 29.0545V35.5295ZM11.1961 29.8455C11.1961 29.8735 11.1844 29.8992 11.1611 29.9225C11.1424 29.9458 11.1168 29.9575 11.0841 29.9575H9.62811C9.60478 29.9575 9.57911 29.9482 9.55111 29.9295C9.52778 29.9108 9.51611 29.8852 9.51611 29.8525V29.4465C9.51611 29.4138 9.52778 29.3882 9.55111 29.3695C9.57911 29.3508 9.60478 29.3415 9.62811 29.3415H11.0841C11.1121 29.3415 11.1378 29.3532 11.1611 29.3765C11.1844 29.3998 11.1961 29.4255 11.1961 29.4535V29.8455ZM18.1991 33.1985C18.1991 33.3805 18.1641 33.5042 18.0941 33.5695C18.0288 33.6302 17.9098 33.6605 17.7371 33.6605H15.9661C15.7701 33.6605 15.6371 33.6302 15.5671 33.5695C15.4971 33.5042 15.4621 33.3805 15.4621 33.1985V29.9505C15.4621 29.7732 15.4948 29.6542 15.5601 29.5935C15.6255 29.5328 15.7468 29.5025 15.9241 29.5025H17.7371C17.9098 29.5025 18.0288 29.5305 18.0941 29.5865C18.1641 29.6425 18.1991 29.7638 18.1991 29.9505V31.2735H18.9481V29.1665C18.9481 29.1058 18.9808 29.0755 19.0461 29.0755H19.6201C19.6808 29.0755 19.7111 29.1058 19.7111 29.1665V35.2845C19.7111 35.3498 19.6808 35.3825 19.6201 35.3825H19.0461C18.9808 35.3825 18.9481 35.3498 18.9481 35.2845V31.9455H18.1991V33.1985ZM21.0691 35.5295C21.0691 35.5902 21.0388 35.6205 20.9781 35.6205H20.3691C20.3085 35.6205 20.2781 35.5902 20.2781 35.5295V29.0545C20.2781 28.9938 20.3108 28.9635 20.3761 28.9635H20.9781C21.0388 28.9635 21.0691 28.9938 21.0691 29.0545V35.5295ZM17.4151 30.2515C17.4151 30.2142 17.4081 30.1908 17.3941 30.1815C17.3801 30.1675 17.3545 30.1605 17.3171 30.1605H16.3441C16.3021 30.1605 16.2741 30.1652 16.2601 30.1745C16.2508 30.1838 16.2461 30.2072 16.2461 30.2445V32.9115C16.2461 32.9535 16.2508 32.9792 16.2601 32.9885C16.2741 32.9978 16.3021 33.0025 16.3441 33.0025H17.3171C17.3591 33.0025 17.3848 32.9978 17.3941 32.9885C17.4081 32.9792 17.4151 32.9535 17.4151 32.9115V30.2515ZM28.0161 33.0865C28.0161 33.1098 28.0045 33.1355 27.9811 33.1635C27.9578 33.1868 27.9345 33.1985 27.9111 33.1985H26.3991V35.4595C26.3991 35.5248 26.3665 35.5575 26.3011 35.5575H25.6921C25.6268 35.5575 25.5941 35.5248 25.5941 35.4595V33.1985H24.1311V35.4595C24.1311 35.5248 24.0985 35.5575 24.0331 35.5575H23.4241C23.3588 35.5575 23.3261 35.5248 23.3261 35.4595V33.1985H21.8141C21.7861 33.1985 21.7628 33.1868 21.7441 33.1635C21.7255 33.1355 21.7161 33.1098 21.7161 33.0865V32.6315C21.7161 32.6035 21.7255 32.5802 21.7441 32.5615C21.7628 32.5382 21.7861 32.5265 21.8141 32.5265H27.9111C27.9345 32.5265 27.9578 32.5382 27.9811 32.5615C28.0045 32.5848 28.0161 32.6082 28.0161 32.6315V33.0865ZM27.2251 31.6585C27.2251 31.6865 27.2135 31.7075 27.1901 31.7215C27.1668 31.7355 27.1435 31.7425 27.1201 31.7425H23.2911C23.0671 31.7425 22.9085 31.7005 22.8151 31.6165C22.7218 31.5278 22.6751 31.3785 22.6751 31.1685V29.1455C22.6751 29.1222 22.6845 29.1012 22.7031 29.0825C22.7265 29.0592 22.7498 29.0475 22.7731 29.0475H23.3821C23.4101 29.0475 23.4335 29.0592 23.4521 29.0825C23.4755 29.1012 23.4871 29.1222 23.4871 29.1455V30.8955C23.4871 30.9655 23.5035 31.0145 23.5361 31.0425C23.5688 31.0658 23.6178 31.0775 23.6831 31.0775H27.1201C27.1435 31.0775 27.1668 31.0868 27.1901 31.1055C27.2135 31.1195 27.2251 31.1382 27.2251 31.1615V31.6585Z" fill="#495057"/>
</svg>
