<svg width="30" height="37" viewBox="0 0 30 37" fill="none" xmlns="http://www.w3.org/2000/svg">
<path d="M7 3.7H11C12.2703 3.7 13.3 4.72975 13.3 6V12.3H7C5.72975 12.3 4.7 11.2703 4.7 10V6C4.7 4.72975 5.72975 3.7 7 3.7Z" fill="white" stroke="#495057" stroke-width="1.4"/>
<path d="M7 15.7H13.3V22C13.3 23.2703 12.2703 24.3 11 24.3H7C5.72975 24.3 4.7 23.2703 4.7 22V18C4.7 16.7297 5.72975 15.7 7 15.7Z" fill="white" stroke="#495057" stroke-width="1.4"/>
<path d="M16.7 15.7H23C24.2703 15.7 25.3 16.7297 25.3 18V22C25.3 23.2703 24.2703 24.3 23 24.3H19C17.7297 24.3 16.7 23.2703 16.7 22V15.7Z" fill="#D0EAFB" stroke="#495057" stroke-width="1.4"/>
<path d="M19 3.7H23C24.2703 3.7 25.3 4.72975 25.3 6V10C25.3 11.2703 24.2703 12.3 23 12.3H16.7V6C16.7 4.72975 17.7297 3.7 19 3.7Z" fill="white" stroke="#495057" stroke-width="1.4"/>
<path d="M2.65998 32.551C2.63198 32.565 2.59465 32.572 2.54798 32.572C2.50598 32.572 2.47098 32.5463 2.44298 32.495L2.23298 32.152C2.20965 32.1147 2.20265 32.0773 2.21198 32.04C2.22598 31.998 2.25398 31.9653 2.29598 31.942C2.55265 31.816 2.79998 31.6667 3.03798 31.494C3.27598 31.3213 3.49065 31.137 3.68198 30.941C3.87798 30.745 4.04598 30.5443 4.18598 30.339C4.33065 30.1337 4.43798 29.9353 4.50798 29.744C4.52665 29.6973 4.53365 29.66 4.52898 29.632C4.52898 29.5993 4.48932 29.583 4.40998 29.583H2.68798C2.65532 29.583 2.62965 29.5737 2.61098 29.555C2.59698 29.5317 2.58998 29.506 2.58998 29.478V29.009C2.58998 28.9437 2.62498 28.911 2.69498 28.911H4.91398C5.11932 28.911 5.27098 28.9507 5.36898 29.03C5.46698 29.1047 5.50432 29.2167 5.48098 29.366C5.47165 29.4173 5.45998 29.4687 5.44598 29.52C5.43198 29.5713 5.41798 29.618 5.40398 29.66C5.35265 29.8373 5.27798 30.0193 5.17998 30.206C5.08198 30.388 4.96765 30.57 4.83698 30.752C4.92098 30.8453 5.01665 30.9387 5.12398 31.032C5.23132 31.1253 5.34098 31.2163 5.45298 31.305C5.56965 31.389 5.68398 31.4683 5.79598 31.543C5.90798 31.6177 6.01065 31.6807 6.10398 31.732C6.19732 31.7787 6.21598 31.8487 6.15998 31.942L5.92898 32.299C5.87765 32.3737 5.80532 32.3877 5.71198 32.341C5.62798 32.299 5.52765 32.2407 5.41098 32.166C5.29898 32.0867 5.17998 32.0003 5.05398 31.907C4.93265 31.809 4.81132 31.7063 4.68998 31.599C4.57332 31.4917 4.46832 31.389 4.37498 31.291C4.13698 31.543 3.87332 31.7763 3.58398 31.991C3.29465 32.2057 2.98665 32.3923 2.65998 32.551ZM5.59298 30.808V30.325C5.59298 30.3017 5.60232 30.283 5.62098 30.269C5.64432 30.2503 5.66765 30.241 5.69098 30.241H6.80398V28.554C6.80398 28.4933 6.83432 28.463 6.89498 28.463H7.51798C7.57865 28.463 7.60898 28.4933 7.60898 28.554V33.097C7.60898 33.1577 7.57865 33.188 7.51798 33.188H6.89498C6.83432 33.188 6.80398 33.1577 6.80398 33.097V30.899H5.69098C5.66765 30.899 5.64432 30.8897 5.62098 30.871C5.60232 30.8523 5.59298 30.8313 5.59298 30.808ZM7.81198 34.903C7.81198 34.931 7.80032 34.952 7.77698 34.966C7.75832 34.98 7.73732 34.987 7.71398 34.987H4.06698C3.85698 34.987 3.71465 34.9497 3.63998 34.875C3.56998 34.8003 3.53498 34.672 3.53498 34.49V32.964C3.53498 32.9407 3.54432 32.9197 3.56298 32.901C3.58632 32.8777 3.60965 32.866 3.63298 32.866H4.23498C4.26298 32.866 4.28632 32.8777 4.30498 32.901C4.32832 32.9197 4.33998 32.9407 4.33998 32.964V34.203C4.33998 34.2497 4.34932 34.28 4.36798 34.294C4.38665 34.308 4.42165 34.315 4.47298 34.315H7.71398C7.73732 34.315 7.75832 34.3243 7.77698 34.343C7.80032 34.3617 7.81198 34.3827 7.81198 34.406V34.903ZM9.15199 33.468C9.12399 33.4867 9.08899 33.4983 9.04699 33.503C9.00499 33.5077 8.97233 33.4937 8.94899 33.461L8.68999 33.132C8.66666 33.104 8.65733 33.069 8.66199 33.027C8.66666 32.985 8.68766 32.9523 8.72499 32.929C8.95366 32.7797 9.16599 32.6163 9.36199 32.439C9.56266 32.257 9.74233 32.0703 9.90099 31.879C10.0643 31.683 10.2067 31.4847 10.328 31.284C10.454 31.0833 10.5543 30.885 10.629 30.689C10.6523 30.633 10.6663 30.591 10.671 30.563C10.6757 30.5303 10.636 30.514 10.552 30.514H9.10299C9.07966 30.514 9.06099 30.5047 9.04699 30.486C9.03299 30.4627 9.02599 30.437 9.02599 30.409V29.975C9.02599 29.9097 9.05399 29.877 9.10999 29.877H11.007C11.2123 29.877 11.3593 29.905 11.448 29.961C11.5367 30.0123 11.581 30.0963 11.581 30.213C11.581 30.2503 11.5717 30.3017 11.553 30.367C11.539 30.4323 11.5273 30.479 11.518 30.507C11.448 30.703 11.3663 30.8967 11.273 31.088C11.1843 31.2747 11.0817 31.4567 10.965 31.634C11.0397 31.7367 11.1237 31.8417 11.217 31.949C11.315 32.0517 11.4153 32.152 11.518 32.25C11.6207 32.348 11.7187 32.439 11.812 32.523C11.91 32.6023 11.9963 32.67 12.071 32.726C12.1223 32.7633 12.148 32.8007 12.148 32.838C12.148 32.8707 12.134 32.9033 12.106 32.936L11.833 33.272C11.8097 33.3047 11.777 33.321 11.735 33.321C11.693 33.3163 11.6533 33.3023 11.616 33.279C11.448 33.1577 11.266 33.0037 11.07 32.817C10.8787 32.6257 10.7013 32.4273 10.538 32.222C10.342 32.46 10.1273 32.684 9.89399 32.894C9.66533 33.104 9.41799 33.2953 9.15199 33.468ZM13.149 34.742C13.149 34.8073 13.1187 34.84 13.058 34.84H12.491C12.421 34.84 12.386 34.8073 12.386 34.742V31.816H11.637C11.6137 31.816 11.5903 31.8067 11.567 31.788C11.5483 31.7693 11.539 31.7483 11.539 31.725V31.242C11.539 31.2187 11.5483 31.2 11.567 31.186C11.5903 31.1673 11.6137 31.158 11.637 31.158H12.386V28.666C12.386 28.6053 12.421 28.575 12.491 28.575H13.058C13.1187 28.575 13.149 28.6053 13.149 28.666V34.742ZM14.486 35.029C14.486 35.0897 14.4557 35.12 14.395 35.12H13.786C13.7253 35.12 13.695 35.0897 13.695 35.029V28.554C13.695 28.4933 13.7277 28.463 13.793 28.463H14.395C14.4557 28.463 14.486 28.4933 14.486 28.554V35.029ZM11.196 29.345C11.196 29.373 11.1843 29.3987 11.161 29.422C11.1423 29.4453 11.1167 29.457 11.084 29.457H9.62799C9.60466 29.457 9.57899 29.4477 9.55099 29.429C9.52766 29.4103 9.51599 29.3847 9.51599 29.352V28.946C9.51599 28.9133 9.52766 28.8877 9.55099 28.869C9.57899 28.8503 9.60466 28.841 9.62799 28.841H11.084C11.112 28.841 11.1377 28.8527 11.161 28.876C11.1843 28.8993 11.196 28.925 11.196 28.953V29.345ZM18.199 32.698C18.199 32.88 18.164 33.0037 18.094 33.069C18.0287 33.1297 17.9097 33.16 17.737 33.16H15.966C15.77 33.16 15.637 33.1297 15.567 33.069C15.497 33.0037 15.462 32.88 15.462 32.698V29.45C15.462 29.2727 15.4947 29.1537 15.56 29.093C15.6253 29.0323 15.7467 29.002 15.924 29.002H17.737C17.9097 29.002 18.0287 29.03 18.094 29.086C18.164 29.142 18.199 29.2633 18.199 29.45V30.773H18.948V28.666C18.948 28.6053 18.9807 28.575 19.046 28.575H19.62C19.6807 28.575 19.711 28.6053 19.711 28.666V34.784C19.711 34.8493 19.6807 34.882 19.62 34.882H19.046C18.9807 34.882 18.948 34.8493 18.948 34.784V31.445H18.199V32.698ZM21.069 35.029C21.069 35.0897 21.0387 35.12 20.978 35.12H20.369C20.3083 35.12 20.278 35.0897 20.278 35.029V28.554C20.278 28.4933 20.3107 28.463 20.376 28.463H20.978C21.0387 28.463 21.069 28.4933 21.069 28.554V35.029ZM17.415 29.751C17.415 29.7137 17.408 29.6903 17.394 29.681C17.38 29.667 17.3543 29.66 17.317 29.66H16.344C16.302 29.66 16.274 29.6647 16.26 29.674C16.2507 29.6833 16.246 29.7067 16.246 29.744V32.411C16.246 32.453 16.2507 32.4787 16.26 32.488C16.274 32.4973 16.302 32.502 16.344 32.502H17.317C17.359 32.502 17.3847 32.4973 17.394 32.488C17.408 32.4787 17.415 32.453 17.415 32.411V29.751ZM28.016 32.586C28.016 32.6093 28.0043 32.635 27.981 32.663C27.9577 32.6863 27.9343 32.698 27.911 32.698H26.399V34.959C26.399 35.0243 26.3663 35.057 26.301 35.057H25.692C25.6267 35.057 25.594 35.0243 25.594 34.959V32.698H24.131V34.959C24.131 35.0243 24.0983 35.057 24.033 35.057H23.424C23.3587 35.057 23.326 35.0243 23.326 34.959V32.698H21.814C21.786 32.698 21.7627 32.6863 21.744 32.663C21.7253 32.635 21.716 32.6093 21.716 32.586V32.131C21.716 32.103 21.7253 32.0797 21.744 32.061C21.7627 32.0377 21.786 32.026 21.814 32.026H27.911C27.9343 32.026 27.9577 32.0377 27.981 32.061C28.0043 32.0843 28.016 32.1077 28.016 32.131V32.586ZM27.225 31.158C27.225 31.186 27.2133 31.207 27.19 31.221C27.1667 31.235 27.1433 31.242 27.12 31.242H23.291C23.067 31.242 22.9083 31.2 22.815 31.116C22.7217 31.0273 22.675 30.878 22.675 30.668V28.645C22.675 28.6217 22.6843 28.6007 22.703 28.582C22.7263 28.5587 22.7497 28.547 22.773 28.547H23.382C23.41 28.547 23.4333 28.5587 23.452 28.582C23.4753 28.6007 23.487 28.6217 23.487 28.645V30.395C23.487 30.465 23.5033 30.514 23.536 30.542C23.5687 30.5653 23.6177 30.577 23.683 30.577H27.12C27.1433 30.577 27.1667 30.5863 27.19 30.605C27.2133 30.619 27.225 30.6377 27.225 30.661V31.158Z" fill="#495057"/>
</svg>
