<svg width="60" height="26" viewBox="0 0 60 26" fill="none" xmlns="http://www.w3.org/2000/svg">
<path d="M52.1319 21.4686C52.2802 21.8834 52.3567 22.2936 52.3567 22.6945C52.3567 23.399 52.1412 23.9714 51.7078 24.4117C51.2768 24.8497 50.7021 25.0699 49.986 25.0699C48.19 25.0699 46.9339 24.6551 46.2132 23.8278C45.4925 23.0004 44.5285 22.5856 43.3257 22.5856C42.123 22.5856 41.2053 22.9958 40.4266 23.8162C40.1393 24.1337 39.6874 24.4048 39.0733 24.6319C38.3201 24.9239 37.5183 25.0676 36.6655 25.0676C35.9517 25.0676 35.3793 24.8474 34.9529 24.4094C34.5265 23.9691 34.3156 23.4014 34.3156 22.7108C34.3156 22.3075 34.3921 21.895 34.5404 21.4663L37.3051 13.5801C37.6434 12.586 38.3132 11.7378 39.3096 11.0333C40.3061 10.3288 41.3258 9.97656 42.3663 9.97656H44.3987C45.4392 9.97656 46.4542 10.3288 47.4461 11.0333C48.4356 11.7378 49.1007 12.586 49.4414 13.5801L52.1319 21.4663V21.4686ZM40.9156 16.3193C40.9156 16.996 41.1543 17.5777 41.6294 18.0597C42.1068 18.5441 42.6815 18.7851 43.3605 18.7851C44.0395 18.7851 44.6351 18.5441 45.1101 18.0597C45.5875 17.5777 45.8262 16.996 45.8262 16.3193C45.8262 15.6426 45.5875 15.061 45.1101 14.5766C44.6328 14.0946 44.0511 13.8513 43.3605 13.8513C42.6699 13.8513 42.1068 14.0923 41.6294 14.5766C41.152 15.061 40.9156 15.6403 40.9156 16.3193Z" fill="#C195C2"/>
<path d="M32.4965 9.94397C33.6112 9.94397 34.4779 10.3148 35.092 11.0586C35.669 11.7492 35.9564 12.6484 35.9564 13.7561V21.2275C35.9564 23.7674 34.8046 25.0396 32.5011 25.0396C30.1976 25.0396 29.0644 24.1289 29.0644 22.312C29.0644 21.3665 28.9949 20.7269 28.8558 20.3978C28.6171 19.8556 28.1282 19.5821 27.3866 19.5821C26.645 19.5821 26.1421 19.8486 25.9174 20.3793C25.7783 20.7223 25.7088 21.3688 25.7088 22.319C25.7088 24.1312 24.5686 25.0373 22.2813 25.0373C19.994 25.0373 18.8353 23.765 18.8353 21.2228V13.7584C18.8353 12.6507 19.1111 11.7516 19.6626 11.0563C20.2768 10.3148 21.1481 9.94165 22.2767 9.94165C23.4053 9.94165 24.3392 10.2128 24.9301 10.7527C25.4562 11.244 25.7204 11.9045 25.7204 12.7341C25.7204 13.6773 25.8015 14.3308 25.966 14.697C26.2024 15.2509 26.6821 15.5266 27.3959 15.5266C28.1606 15.5266 28.6565 15.2485 28.8836 14.697C28.9949 14.3957 29.0528 13.7399 29.0528 12.7341C29.0528 11.9045 29.3216 11.244 29.8616 10.7527C30.4641 10.2128 31.3424 9.94165 32.4965 9.94165V9.94397Z" fill="#79BD28"/>
<path fill-rule="evenodd" clip-rule="evenodd" d="M6.05021 9.7307C6.35443 9.51622 6.6604 9.33111 6.96816 9.1754L7.36984 13.7132C7.39946 14.8538 8.06192 15.8389 9.01773 16.3299C8.375 16.7917 7.95497 17.5455 7.95497 18.3956C7.95497 19.7953 9.09514 20.9355 10.4972 20.9355C11.8992 20.9355 13.0371 19.7953 13.0371 18.3956C13.0371 17.5081 12.5786 16.7239 11.8863 16.2689C12.7818 15.7602 13.3947 14.8083 13.4232 13.7131L13.8378 9.01685C14.2581 9.20004 14.6748 9.43803 15.0881 9.7307C16.1866 10.514 16.9258 11.4549 17.3036 12.5603L20.2907 21.3155L20.2884 21.3178C20.4553 21.779 20.5387 22.2332 20.5387 22.6804C20.5387 23.4637 20.3 24.0987 19.818 24.5877C19.3383 25.0743 18.701 25.32 17.9061 25.32C15.9131 25.32 14.5181 24.8611 13.7162 23.9411C12.9167 23.0234 11.8461 22.5622 10.5089 22.5622C9.17177 22.5622 8.15443 23.0188 7.29003 23.9295C6.97023 24.2818 6.46966 24.583 5.78603 24.8356C4.94944 25.1601 4.05955 25.32 3.11173 25.32C2.31685 25.32 1.6842 25.0743 1.20913 24.5877C0.736376 24.0987 0.5 23.4707 0.5 22.7013C0.5 22.254 0.583427 21.7929 0.750281 21.3201L3.82318 12.5603C4.20091 11.4572 4.94249 10.514 6.05021 9.7307Z" fill="#F6AC19"/>
<path d="M12.0477 18.3957C12.0477 19.2508 11.3524 19.946 10.4973 19.946C9.63987 19.946 8.94464 19.2508 8.94464 18.3957C8.94464 17.5382 9.63987 16.843 10.4973 16.843C11.3524 16.843 12.0477 17.5382 12.0477 18.3957Z" fill="url(#paint0_linear_13_118)"/>
<path d="M12.1842 14.0296C12.1842 15.0192 11.3824 15.821 10.3928 15.821C9.40562 15.821 8.60379 15.0192 8.60379 14.0296L7.60962 2.78322C7.60962 1.24445 8.85639 0 10.3928 0C11.9316 0 13.1784 1.24677 13.1784 2.78322L12.1842 14.0296Z" fill="url(#paint1_linear_13_118)"/>
<path fill-rule="evenodd" clip-rule="evenodd" d="M55.5 7.75C55.5 7.05964 54.9404 6.5 54.25 6.5C53.5596 6.5 53 7.05964 53 7.75L53 9.98622H50.75C50.0596 9.98622 49.5 10.5459 49.5 11.2362C49.5 11.9266 50.0596 12.4862 50.75 12.4862H53L53 14.75C53 15.4404 53.5596 16 54.25 16C54.9404 16 55.5 15.4404 55.5 14.75V12.4862H57.75C58.4404 12.4862 59 11.9266 59 11.2362C59 10.5459 58.4404 9.98622 57.75 9.98622H55.5V7.75Z" fill="#3499DB"/>
<defs>
<linearGradient id="paint0_linear_13_118" x1="10.4973" y1="17.0748" x2="10.4973" y2="19.7745" gradientUnits="userSpaceOnUse">
<stop stop-color="#4FC2F1"/>
<stop offset="0.68" stop-color="#0082B5"/>
<stop offset="1" stop-color="#0069A1"/>
</linearGradient>
<linearGradient id="paint1_linear_13_118" x1="10.3952" y1="1.18652" x2="10.3952" y2="14.952" gradientUnits="userSpaceOnUse">
<stop stop-color="#4FC2F1"/>
<stop offset="0.68" stop-color="#0082B5"/>
<stop offset="1" stop-color="#0069A1"/>
</linearGradient>
</defs>
</svg>
