<svg width="28" height="28" viewBox="0 0 28 28" fill="none" xmlns="http://www.w3.org/2000/svg">
<path d="M5.27273 2.7H9.63636C11.0572 2.7 12.2091 3.85185 12.2091 5.27273V12.2091H5.27273C3.85185 12.2091 2.7 11.0572 2.7 9.63636V5.27273C2.7 3.85185 3.85185 2.7 5.27273 2.7Z" fill="white" stroke="#495057" stroke-width="1.4"/>
<path d="M5.27273 15.7908H12.2091V22.7272C12.2091 24.1481 11.0572 25.2999 9.63636 25.2999H5.27273C3.85185 25.2999 2.7 24.1481 2.7 22.7272V18.3635C2.7 16.9427 3.85185 15.7908 5.27273 15.7908Z" fill="white" stroke="#495057" stroke-width="1.4"/>
<path d="M15.7909 15.7908H22.7272C24.1481 15.7908 25.3 16.9427 25.3 18.3635V22.7272C25.3 24.1481 24.1481 25.2999 22.7272 25.2999H18.3636C16.9427 25.2999 15.7909 24.1481 15.7909 22.7272V15.7908Z" fill="#D0EAFB" stroke="#495057" stroke-width="1.4"/>
<path d="M18.3636 2.7H22.7272C24.1481 2.7 25.3 3.85185 25.3 5.27273V9.63636C25.3 11.0572 24.1481 12.2091 22.7272 12.2091H15.7909V5.27273C15.7909 3.85185 16.9427 2.7 18.3636 2.7Z" fill="white" stroke="#495057" stroke-width="1.4"/>
</svg>
