<svg width="40" height="35" viewBox="0 0 40 35" fill="none" xmlns="http://www.w3.org/2000/svg">
<rect width="40" height="35" rx="4" fill="#38BAE6"/>
<rect width="24" height="24" transform="translate(8 6)" fill="#38BAE6"/>
<rect x="9" y="9" width="22" height="2" fill="white"/>
<rect x="9" y="15" width="22" height="2" fill="white"/>
<path d="M14.5098 26.875C14.4698 26.875 14.4448 26.8675 14.4348 26.8525C14.4248 26.8425 14.4198 26.8225 14.4198 26.7925V22.72L12.7923 26.7775C12.7823 26.8025 12.7698 26.8175 12.7548 26.8225C12.7448 26.8275 12.7148 26.83 12.6648 26.83H12.0648C12.0148 26.83 11.9823 26.8275 11.9673 26.8225C11.9573 26.8175 11.9473 26.8025 11.9373 26.7775L10.3098 22.72V26.7925C10.3098 26.8225 10.3048 26.8425 10.2948 26.8525C10.2848 26.8675 10.2598 26.875 10.2198 26.875H9.52232C9.46232 26.875 9.43232 26.8475 9.43232 26.7925V21.3775C9.43232 21.3075 9.43982 21.265 9.45482 21.25C9.46982 21.23 9.51732 21.22 9.59732 21.22H10.4898C10.5248 21.22 10.5448 21.2275 10.5498 21.2425C10.5598 21.2525 10.5723 21.275 10.5873 21.31L12.3648 25.72L14.1423 21.31C14.1573 21.275 14.1673 21.2525 14.1723 21.2425C14.1823 21.2275 14.2048 21.22 14.2398 21.22H15.1323C15.2123 21.22 15.2598 21.23 15.2748 21.25C15.2898 21.265 15.2973 21.3075 15.2973 21.3775V26.7925C15.2973 26.8475 15.2673 26.875 15.2073 26.875H14.5098ZM16.9604 26.8825C16.8604 26.8825 16.8004 26.8725 16.7804 26.8525C16.7604 26.8375 16.7504 26.775 16.7504 26.665V21.4225C16.7504 21.3225 16.7579 21.265 16.7729 21.25C16.7929 21.23 16.8504 21.22 16.9454 21.22H19.6079C19.6629 21.22 19.6954 21.23 19.7054 21.25C19.7154 21.265 19.7204 21.295 19.7204 21.34V21.895C19.7204 21.945 19.7129 21.98 19.6979 22C19.6829 22.015 19.6529 22.0225 19.6079 22.0225H17.5754V23.5525H19.5104C19.5854 23.5525 19.6229 23.5925 19.6229 23.6725V24.235C19.6229 24.32 19.5854 24.3625 19.5104 24.3625H17.5754V26.0725H19.6979C19.7679 26.0725 19.8029 26.115 19.8029 26.2V26.7625C19.8029 26.8425 19.7679 26.8825 19.6979 26.8825H16.9604ZM24.3642 26.875C24.3242 26.875 24.2942 26.8675 24.2742 26.8525C24.2542 26.8375 24.2292 26.805 24.1992 26.755L21.8442 22.705V26.755C21.8442 26.805 21.8367 26.8375 21.8217 26.8525C21.8067 26.8675 21.7742 26.875 21.7242 26.875H21.1017C21.0617 26.875 21.0317 26.8675 21.0117 26.8525C20.9917 26.8375 20.9817 26.805 20.9817 26.755V21.3475C20.9817 21.2875 20.9917 21.25 21.0117 21.235C21.0317 21.215 21.0692 21.205 21.1242 21.205H21.8142C21.8542 21.205 21.8842 21.2125 21.9042 21.2275C21.9242 21.2375 21.9492 21.27 21.9792 21.325L24.3342 25.3675V21.325C24.3342 21.275 24.3417 21.2425 24.3567 21.2275C24.3717 21.2125 24.4042 21.205 24.4542 21.205H25.0767C25.1267 21.205 25.1567 21.2125 25.1667 21.2275C25.1817 21.2425 25.1892 21.275 25.1892 21.325V26.7325C25.1892 26.7925 25.1792 26.83 25.1592 26.845C25.1442 26.865 25.1092 26.875 25.0542 26.875H24.3642ZM29.896 26.5675C29.711 26.7125 29.5035 26.82 29.2735 26.89C29.0485 26.965 28.8035 27.0025 28.5385 27.0025C28.0185 27.0025 27.5685 26.8575 27.1885 26.5675C26.9385 26.3775 26.756 26.14 26.641 25.855C26.531 25.565 26.476 25.2325 26.476 24.8575V21.325C26.476 21.3 26.4835 21.275 26.4985 21.25C26.5185 21.225 26.541 21.2125 26.566 21.2125H27.2335C27.2585 21.2125 27.2785 21.2225 27.2935 21.2425C27.3135 21.2625 27.3235 21.285 27.3235 21.31V24.8575C27.3235 25.2475 27.426 25.5675 27.631 25.8175C27.836 26.0675 28.1385 26.1925 28.5385 26.1925C28.9485 26.1925 29.2535 26.07 29.4535 25.825C29.6585 25.58 29.761 25.2575 29.761 24.8575V21.31C29.761 21.285 29.7685 21.2625 29.7835 21.2425C29.8035 21.2225 29.826 21.2125 29.851 21.2125H30.5185C30.5435 21.2125 30.5635 21.225 30.5785 21.25C30.5985 21.275 30.6085 21.3 30.6085 21.325V24.8575C30.6085 25.2275 30.5485 25.5575 30.4285 25.8475C30.3135 26.1375 30.136 26.3775 29.896 26.5675Z" fill="white"/>
</svg>
